{
    "asset" : {
        "generator" : "Khronos glTF Blender I/O v1.0.5",
        "version" : "2.0"
    },
    "scene" : 0,
    "scenes" : [
        {
            "name" : "Scene",
            "nodes" : [
                0,
                1,
                5
            ]
        }
    ],
    "nodes" : [
        {
            "name" : "Light",
            "rotation" : [
                0.16907575726509094,
                0.7558803558349609,
                -0.27217137813568115,
                0.570947527885437
            ],
            "translation" : [
                4.076245307922363,
                5.903861999511719,
                -1.0054539442062378
            ]
        },
        {
            "name" : "Camera",
            "rotation" : [
                0.483536034822464,
                0.33687159419059753,
                -0.20870360732078552,
                0.7804827094078064
            ],
            "translation" : [
                7.358891487121582,
                4.958309173583984,
                6.925790786743164
            ]
        },
        {
            "mesh" : 0,
            "name" : "destroyer"
        },
        {
            "children" : [
                2
            ],
            "name" : "Boat_1.STL.cleaner.materialmerger.gles"
        },
        {
            "children" : [
                3
            ],
            "name" : "RootNode (model correction matrix)",
            "rotation" : [
                0.7071068286895752,
                0,
                0,
                0.7071068286895752
            ],
            "translation" : [
                0,
                -8.51982307434082,
                -12.547029495239258
            ]
        },
        {
            "children" : [
                4
            ],
            "name" : "RootNode (gltf orientation matrix)"
        }
    ],
    "materials" : [
        {
            "doubleSided" : true,
            "name" : "Scene_-_Root",
            "pbrMetallicRoughness" : {
                "baseColorFactor" : [
                    0.19683688879013062,
                    0.19683688879013062,
                    0.19683688879013062,
                    1
                ],
                "metallicFactor" : 0.42854419350624084,
                "roughnessFactor" : 0.6000000238418579
            }
        }
    ],
    "meshes" : [
        {
            "name" : "destroyer",
            "primitives" : [
                {
                    "attributes" : {
                        "POSITION" : 0,
                        "NORMAL" : 1
                    },
                    "indices" : 2,
                    "material" : 0
                }
            ]
        }
    ],
    "accessors" : [
        {
            "bufferView" : 0,
            "componentType" : 5126,
            "count" : 60335,
            "max" : [
                20,
                101.52729797363281,
                20
            ],
            "min" : [
                -20,
                -97.5,
                -41.06678009033203
            ],
            "type" : "VEC3"
        },
        {
            "bufferView" : 1,
            "componentType" : 5126,
            "count" : 60335,
            "type" : "VEC3"
        },
        {
            "bufferView" : 2,
            "componentType" : 5123,
            "count" : 226218,
            "type" : "SCALAR"
        }
    ],
    "bufferViews" : [
        {
            "buffer" : 0,
            "byteLength" : 724020,
            "byteOffset" : 0
        },
        {
            "buffer" : 0,
            "byteLength" : 724020,
            "byteOffset" : 724020
        },
        {
            "buffer" : 0,
            "byteLength" : 452436,
            "byteOffset" : 1448040
        }
    ],
    "buffers" : [
        {
            "byteLength" : 1900476,
            "uri" : "scene.bin"
        }
    ]
}
